<?xml version="1.0" encoding="iso-8859-1"?>
<!-- Generator: Adobe Illustrator 18.0.0, SVG Export Plug-In . SVG Version: 6.00 Build 0)  -->
<!DOCTYPE svg PUBLIC "-//W3C//DTD SVG 1.1//EN" "http://www.w3.org/Graphics/SVG/1.1/DTD/svg11.dtd">
<svg version="1.1" id="Capa_1" xmlns="http://www.w3.org/2000/svg" xmlns:xlink="http://www.w3.org/1999/xlink" x="0px" y="0px"
	 viewBox="0 0 186.478 186.478" style="enable-background:new 0 0 186.478 186.478;" xml:space="preserve">
<g>
	<path d="M178.978,159.079h-17.465V61.481c0-2.476-1.222-4.792-3.265-6.19L97.474,13.708c-2.554-1.747-5.917-1.747-8.471,0
		L28.229,55.291c-2.043,1.398-3.265,3.714-3.265,6.19v97.598H7.5c-4.142,0-7.5,3.358-7.5,7.5s3.358,7.5,7.5,7.5h171.478
		c4.142,0,7.5-3.358,7.5-7.5S183.12,159.079,178.978,159.079z M39.965,72.398h106.548v84.354h-28.116v-33.568
		c0-13.872-11.286-25.157-25.158-25.157s-25.158,11.286-25.158,25.157v33.568H39.965V72.398z M83.081,123.183
		c0-5.601,4.557-10.157,10.158-10.157s10.158,4.557,10.158,10.157v33.568H83.081V123.183z M93.239,28.986l41.525,28.413h-83.05
		L93.239,28.986z"/>
</g>
<g>
</g>
<g>
</g>
<g>
</g>
<g>
</g>
<g>
</g>
<g>
</g>
<g>
</g>
<g>
</g>
<g>
</g>
<g>
</g>
<g>
</g>
<g>
</g>
<g>
</g>
<g>
</g>
<g>
</g>
</svg>
